<?xml version="1.0" encoding="UTF-8"?>
<svg width="12px" height="12px" viewBox="0 0 12 12" version="1.1" xmlns="http://www.w3.org/2000/svg" xmlns:xlink="http://www.w3.org/1999/xlink">
    <title>Group</title>
    <defs>
        <path d="M0.5,0 C0.22386,0 0,0.22386 0,0.5 L0,11.5 C0,11.7761 0.22386,12 0.5,12 L11.5,12 C11.7761,12 12,11.7761 12,11.5 L12,0.5 C12,0.22386 11.7761,0 11.5,0 L0.5,0 Z M7,8 L3,8 L3,9 L7,9 L7,8 Z M3,6 L9,6 L9,7 L3,7 L3,6 Z M7,4 L3,4 L3,5 L7,5 L7,4 Z" id="path-1"></path>
    </defs>
    <g id="Page-1" stroke="none" stroke-width="1" fill="none" fill-rule="evenodd">
        <g id="Group">
            <path d="M0.5,0 C0.22386,0 0,0.22386 0,0.5 L0,11.5 C0,11.7761 0.22386,12 0.5,12 L11.5,12 C11.7761,12 12,11.7761 12,11.5 L12,0.5 C12,0.22386 11.7761,0 11.5,0 L0.5,0 Z M7,8 L3,8 L3,9 L7,9 L7,8 Z M3,6 L9,6 L9,7 L3,7 L3,6 Z M7,4 L3,4 L3,5 L7,5 L7,4 Z" id="Shape" fill="#757F88"></path>
            <g id="Clipped">
                <mask id="mask-2" fill="white">
                    <use xlink:href="#path-1"></use>
                </mask>
                <g id="Shape"></g>
                <path d="M3,8 L3,7 L2,7 L2,8 L3,8 Z M7,8 L8,8 L8,7 L7,7 L7,8 Z M3,9 L2,9 L2,10 L3,10 L3,9 Z M7,9 L7,10 L8,10 L8,9 L7,9 Z M9,6 L10,6 L10,5 L9,5 L9,6 Z M3,6 L3,5 L2,5 L2,6 L3,6 Z M9,7 L9,8 L10,8 L10,7 L9,7 Z M3,7 L2,7 L2,8 L3,8 L3,7 Z M3,4 L3,3 L2,3 L2,4 L3,4 Z M7,4 L8,4 L8,3 L7,3 L7,4 Z M3,5 L2,5 L2,6 L3,6 L3,5 Z M7,5 L7,6 L8,6 L8,5 L7,5 Z M1,0.5 C1,0.77614 0.77614,1 0.5,1 L0.5,-1 C-0.32843,-1 -1,-0.32843 -1,0.5 L1,0.5 Z M1,11.5 L1,0.5 L-1,0.5 L-1,11.5 L1,11.5 Z M0.5,11 C0.77614,11 1,11.2239 1,11.5 L-1,11.5 C-1,12.3284 -0.32843,13 0.5,13 L0.5,11 Z M11.5,11 L0.5,11 L0.5,13 L11.5,13 L11.5,11 Z M11,11.5 C11,11.2239 11.2239,11 11.5,11 L11.5,13 C12.3284,13 13,12.3284 13,11.5 L11,11.5 Z M11,0.5 L11,11.5 L13,11.5 L13,0.5 L11,0.5 Z M11.5,1 C11.2239,1 11,0.77614 11,0.5 L13,0.5 C13,-0.32843 12.3284,-1 11.5,-1 L11.5,1 Z M0.5,1 L11.5,1 L11.5,-1 L0.5,-1 L0.5,1 Z M3,9 L7,9 L7,7 L3,7 L3,9 Z M4,9 L4,8 L2,8 L2,9 L4,9 Z M7,8 L3,8 L3,10 L7,10 L7,8 Z M6,8 L6,9 L8,9 L8,8 L6,8 Z M9,5 L3,5 L3,7 L9,7 L9,5 Z M10,7 L10,6 L8,6 L8,7 L10,7 Z M3,8 L9,8 L9,6 L3,6 L3,8 Z M2,6 L2,7 L4,7 L4,6 L2,6 Z M3,5 L7,5 L7,3 L3,3 L3,5 Z M4,5 L4,4 L2,4 L2,5 L4,5 Z M7,4 L3,4 L3,6 L7,6 L7,4 Z M6,4 L6,5 L8,5 L8,4 L6,4 Z" id="Shape" fill="#757F88" fill-rule="nonzero" mask="url(#mask-2)"></path>
            </g>
        </g>
    </g>
</svg>