<?xml version="1.0" encoding="UTF-8"?>
<svg width="24px" height="24px" viewBox="0 0 24 24" version="1.1" xmlns="http://www.w3.org/2000/svg" xmlns:xlink="http://www.w3.org/1999/xlink">
    <title>Group 4</title>
    <g id="Page-1" stroke="none" stroke-width="1" fill="none" fill-rule="evenodd">
        <g id="Group-4">
            <rect id="Rectangle" fill="#E2E5E7" fill-rule="nonzero" x="0" y="0" width="24" height="24" rx="4"></rect>
            <line x1="15.5" y1="13.5" x2="18.5" y2="13.5" id="Path" stroke="#29313A" stroke-linecap="round" stroke-linejoin="bevel"></line>
            <line x1="14.5" y1="11.5" x2="18.5" y2="11.5" id="Path" stroke="#29313A" stroke-linecap="round" stroke-linejoin="bevel"></line>
            <line x1="15.5" y1="9.5" x2="18.5" y2="9.5" id="Path" stroke="#29313A" stroke-linecap="round" stroke-linejoin="bevel"></line>
            <path d="M9.165,11.0698 C10.026,10.5137 10.984,10.125 12,10.0001 C12,10.0001 11.646,10.7967 11.608,11.9803 C11.323,11.9491 10.989,11.8924 10.64,11.7949 C10.112,11.647 9.591,11.4165 9.165,11.0698 Z M8.339,11.6765 C6.222,13.4292 4.876,16.1465 5,18.0001 L7.948,18.0001 C7.605,17.2117 7.537,16.424 7.567,15.7939 C7.587,15.3713 7.651,15.0114 7.711,14.7556 C7.741,14.6274 7.77,14.5245 7.792,14.4518 C7.803,14.4155 7.812,14.3867 7.819,14.366 L7.828,14.3411 L7.83,14.3333 L7.831,14.3306 L7.832,14.3296 L7.832,14.3292 C7.832,14.329 7.832,14.3288 8.302,14.4999 C8.772,14.6711 8.772,14.6709 8.772,14.6708 L8.772,14.6714 L8.767,14.6838 C8.763,14.6959 8.757,14.7157 8.749,14.7426 C8.732,14.7963 8.709,14.8779 8.685,14.9826 C8.636,15.1926 8.583,15.4915 8.566,15.8415 C8.535,16.4829 8.629,17.2684 9.071,18.0001 L11.241,18.0001 C10.83,17.6235 10.552,17.2219 10.365,16.8487 C10.185,16.4886 10.094,16.1626 10.048,15.9226 C10.025,15.8024 10.013,15.7031 10.007,15.6309 C10.004,15.5947 10.002,15.5653 10.001,15.5432 C10.001,15.5322 10,15.5231 10,15.5158 L10,15.5065 L10,15.5029 L10,15.5014 L10,15.5007 C10,15.5004 10,15.5001 10.5,15.5001 C11,15.5001 11,15.4998 11,15.4995 L11,15.4989 L11,15.498 L11,15.4966 L11,15.4958 L11,15.5023 C11.001,15.51 11.001,15.5245 11.003,15.545 C11.007,15.5861 11.014,15.6508 11.03,15.7338 C11.062,15.9 11.127,16.1365 11.26,16.4015 C11.513,16.908 12.027,17.5488 13.099,18.0001 L15,18.0001 C12.659,16.361 11.852,14.5027 11.657,12.9899 C11.278,12.9568 10.831,12.8866 10.371,12.7579 C9.697,12.5692 8.946,12.2405 8.339,11.6765 Z" id="Shape" fill="#29313A"></path>
            <line x1="11.376" y1="10.7986" x2="16.5" y2="5.67474" id="Path" stroke="#29313A" stroke-linecap="round" stroke-linejoin="round"></line>
        </g>
    </g>
</svg>