<svg width="165" height="24" viewBox="0 0 165 24" fill="none" xmlns="http://www.w3.org/2000/svg">
<rect x="36" width="24" height="24" rx="4" fill="#E2E5E7"/>
<path d="M52.1317 11.4573L45.9792 7.612C45.5529 7.34558 45 7.65204 45 8.15472V15.8453C45 16.348 45.5529 16.6544 45.9792 16.388L52.1316 12.5427C52.5327 12.2921 52.5327 11.7079 52.1317 11.4573Z" fill="#29313A" stroke="#29313A" stroke-linecap="round" stroke-linejoin="round"/>
<rect x="72" width="24" height="24" rx="4" fill="#E2E5E7"/>
<path d="M81 15H82V9H81V15Z" fill="#29313A" stroke="#29313A" stroke-width="2" stroke-linecap="round" stroke-linejoin="round"/>
<path d="M86 15H87V9H86V15Z" fill="#29313A" stroke="#29313A" stroke-width="2" stroke-linecap="round" stroke-linejoin="round"/>
<rect x="105" width="24" height="24" rx="4" fill="#E2E5E7"/>
<path d="M120.5 13.5H123.5" stroke="#29313A" stroke-linecap="round" stroke-linejoin="bevel"/>
<path d="M119.5 11.5H123.5" stroke="#29313A" stroke-linecap="round" stroke-linejoin="bevel"/>
<path d="M120.5 9.5H123.5" stroke="#29313A" stroke-linecap="round" stroke-linejoin="bevel"/>
<path fill-rule="evenodd" clip-rule="evenodd" d="M114.165 11.0698C115.026 10.5137 115.984 10.125 117 10.0001C117 10.0001 116.646 10.7967 116.608 11.9803C116.323 11.9491 115.989 11.8924 115.64 11.7949C115.112 11.647 114.591 11.4165 114.165 11.0698ZM113.339 11.6765C111.222 13.4292 109.876 16.1465 110 18.0001H112.948C112.605 17.2117 112.537 16.424 112.567 15.7939C112.587 15.3713 112.651 15.0114 112.711 14.7556C112.741 14.6274 112.77 14.5245 112.792 14.4518C112.803 14.4155 112.812 14.3867 112.819 14.366L112.828 14.3411L112.83 14.3333L112.831 14.3306L112.832 14.3296L112.832 14.3292C112.832 14.329 112.832 14.3288 113.302 14.4999C113.772 14.6711 113.772 14.6709 113.772 14.6708L113.772 14.6714L113.767 14.6838C113.763 14.6959 113.757 14.7157 113.749 14.7426C113.732 14.7963 113.709 14.8779 113.685 14.9826C113.636 15.1926 113.583 15.4915 113.566 15.8415C113.535 16.4829 113.629 17.2684 114.071 18.0001H116.241C115.83 17.6235 115.552 17.2219 115.365 16.8487C115.185 16.4886 115.094 16.1626 115.048 15.9226C115.025 15.8024 115.013 15.7031 115.007 15.6309C115.004 15.5947 115.002 15.5653 115.001 15.5432C115.001 15.5322 115 15.5231 115 15.5158L115 15.5065L115 15.5029L115 15.5014L115 15.5007C115 15.5004 115 15.5001 115.5 15.5001C116 15.5001 116 15.4998 116 15.4995L116 15.4989L116 15.498L116 15.4966L116 15.4958L116 15.5023C116.001 15.51 116.001 15.5245 116.003 15.545C116.007 15.5861 116.014 15.6508 116.03 15.7338C116.062 15.9 116.127 16.1365 116.26 16.4015C116.513 16.908 117.027 17.5488 118.099 18.0001H120C117.659 16.361 116.852 14.5027 116.657 12.9899C116.278 12.9568 115.831 12.8866 115.371 12.7579C114.697 12.5692 113.946 12.2405 113.339 11.6765Z" fill="#29313A"/>
<path d="M116.376 10.7986L121.5 5.67474" stroke="#29313A" stroke-linecap="round" stroke-linejoin="round"/>
<rect width="24" height="24" rx="4" fill="#E2E5E7"/>
<path fill-rule="evenodd" clip-rule="evenodd" d="M12 8V16V8Z" fill="#29313A"/>
<path d="M12 8V16" stroke="#29313A" stroke-width="2" stroke-linecap="round" stroke-linejoin="round"/>
<path fill-rule="evenodd" clip-rule="evenodd" d="M8 12H16H8Z" fill="#29313A"/>
<path d="M8 12H16" stroke="#29313A" stroke-width="2" stroke-linecap="round" stroke-linejoin="round"/>
<path d="M142 20.8L145.96 23L153 19L160.04 23L164 20.8V7.16L153.977 1.54724C153.37 1.20725 152.63 1.20725 152.023 1.54724L142 7.16V20.8Z" fill="#E2E5E7"/>
<path d="M152.998 12.3483L147 9.3495L152.998 6L158.995 9.3495L152.998 12.3483Z" fill="#8F969D"/>
<path d="M147 9.35101L152.998 12.3452V18.6989L147 15.7001V9.35101Z" fill="#29313A"/>
<path d="M158.995 9.35101L152.997 12.3452V18.6989L158.995 15.7001V9.35101Z" fill="#BABFC4"/>
<path d="M152.998 18.6944V12.336M152.998 12.336L147 9.3465M152.998 12.336L159 9.3465" stroke="#E2E5E7" stroke-width="1.5"/>
</svg>
